<svg xmlns="http://www.w3.org/2000/svg" viewBox="0 0 145 145">
  <path d="M68.42160051 95.24955653l35.7356046 5.8521567-4.83777956 11.80375064H68.4216005zm-20.7456814-24.0561662h15.66961248v45.02254429H47.6759191zm5.29676559-34.8704081h22.5112738v84.30691064H52.9726847zm6.62096545-11.19118188h46.12603757v27.96430912H59.59365015zM59.274996 45.05403784h51.7466571v56.15958977h-51.7466571z" fill="#ffa22d"/>
  <path d="M94.96943842 18.54947107c-1.06407593-.03179151-2.17232803.00743178-3.32302469.12117108-27.29169321 2.66079263-31.4961611 3.84291664-37.34021963 10.49906002-5.09216946 5.79968006-8.71912512 18.41530333-8.76562413 30.48661463-.0238395 6.3961136-.54661335 10.56388994-1.5403615 12.30229109-1.7968389 3.14325566-2.21160335 35.00643448-.53398344 41.04526928 1.3116897 4.72153494 8.1997154 11.50192946 12.78492174 12.58573925 4.99943733 1.18162856 5.4423476 1.1775163 11.43969158-.1089334 3.0750286-.65942202 6.8250042-2.39899574 8.72661224-4.04803383 2.16235623-1.87501382 5.07285013-3.12098509 8.27888288-3.54687574 6.98961652-.92860116 16.20095682-4.35394249 20.47438503-7.6135138 4.89839484-3.73615496 9.55943507-10.35574223 10.98577569-15.6047355 1.63988875-6.03473081.51753278-18.19318389-2.27765125-24.69080736-2.19408498-5.10029983-2.2902192-6.34585823-1.5855459-20.57296432.67905843-13.70954029.55689645-15.57458725-1.2938815-19.69188529-3.25265149-7.23589669-8.58122263-10.9484186-16.02997712-11.1623961zm-.99195132 7.22731712c1.14557286.08632427 2.21760906.57286652 3.98230137 1.51775154 6.85782956 3.67195262 7.7808899 7.19833316 6.58038462 25.12213972-1.01357945 15.1328091-.98940964 15.48526549 1.44383834 20.06153386 5.66684109 10.6578194 4.43977131 20.96572574-3.43394568 28.82518197-5.17777533 5.16835844-11.11448671 7.7045944-22.10099236 9.4413523-3.83431477.60607833-6.47194915 1.77824376-8.6095559 3.8261456-2.37780936 2.27817146-4.3484215 3.05294299-8.62597021 3.3950114-5.24793631.41968098-5.73967007.2396667-9.22363578-3.38471426-3.68040504-3.82889535-3.68076342-3.8284577-4.03777549-20.0574051-.3274856-14.89236618-.17907704-16.51756477 1.80323436-19.72475027 1.88635306-3.0521833 2.08404424-4.62037187 1.56706059-12.37005242-.513134-7.69180349-.22519125-10.01627496 2.1564909-17.4532509 2.0808238-6.49707022 3.61032086-9.33776978 6.29900993-11.69842577 3.89892008-3.42330998 11.05599281-5.47013007 18.5006722-5.29061125 2.60256298.06275727 6.7738207-.53412217 9.26882927-1.32675475 2.06528478-.65616854 3.2844587-.96951724 4.43005384-.88315167zm-1.60608652 9.9034605c-2.89122164 0-3.19954646.35131685-3.68452473 4.20617389-.36604746 2.90811408-.75549844 3.65369522-1.26101815 2.41937533-2.09720428-5.12050603-15.55932568-6.69153518-19.72269498-2.30229173-5.2171803 5.5001297-7.14886144 23.01304129-3.10535522 28.15351403 2.81583199 3.57974898 7.33717123 5.9046994 11.48280996 5.9046994 5.90073164 0 12.58970947 2.27129293 14.74015833 5.00513173 2.85641778 3.6313338 2.76619842 10.04346702-.18094655 12.78903151-1.24163111 1.1566908-4.76831222 2.66337724-7.83526495 3.3497023-4.82121165 1.0789874-5.93714903 1.01243166-8.2439791-.4990524-3.31615773-2.17281358-6.90077783-9.01670855-6.90077783-13.1730317 0-3.43099774-2.57430238-4.97683316-6.30928478-3.79138136-1.96861133.62482294-2.1030919 1.59082247-2.1030919 15.10779703 0 9.82943996.4021007 14.84237506 1.26103384 15.70131565 1.74073473 1.740705 2.61258102 1.59358048 5.05852414-.85231805 1.72244428-1.72253016 1.98520402-2.91752767 1.41917886-6.45712026-.69460242-4.3439426-.6945793-4.34435548 2.70691427-1.82998547 4.22867237 3.12580749 10.73355752 3.0835289 19.3098727-.1250934 7.77430865-2.90878295 11.25481445-7.006651 11.25481445-13.25526023 0-10.16142592-6.32521852-16.41337945-17.98720544-17.77978688-9.0363656-1.05876469-11.3017866-2.28659416-12.10305574-6.55778788-.8781377-4.6807427 1.65588112-15.96643208 3.90221814-17.38130299 3.52454488-2.2199641 6.82248152-.03187408 9.73708355 6.46535303 1.5292997 3.4077693 2.78085472 7.23165232 2.78085472 8.49863076 0 5.26939765 4.39455635 8.36836814 7.15339153 5.0441651.60605603-.73024689 1.25617346-7.47328432 1.44383256-14.98457808.3413979-13.65678288.34100896-13.65571766-2.81371807-13.65571766z" fill="#fff"/>
  <path fill="#fff" d="M93.87553875 86.79124732h48.89015179v29.9673717h-48.8901518z"/>
  <path d="M96.74794642 119.51697527c-1.32827413-.15539856-1.76905477-.41576691-1.77666657-1.0494667-.00173408-.15317729-.251655-.37291856-.55514585-.4883011-.30349003-.1153908-.61476774-.38332306-.6917255-.59541786-.07696023-.21208654-.43469978-.80274806-.79497854-1.3125683-.65505295-.92694965-.65505295-.92694965-.85693152-6.9913828-.21530616-6.46771469-.06434272-18.20281217.25145186-19.54604896.10470473-.44535366.34916659-.96854285.54325418-1.16262797.19408677-.19408511.35288495-.47698002.35288495-.62864617 0-.27945152.99153101-1.34763806 2.5678359-2.76635697.86584142-.77928014.86584142-.77928014 22.69029057-.76468082 23.51557013.01568932 22.28709657-.04409524 23.39799934 1.14023353.26462924.28213522.62360908.51297462.79771922.51297462.17411839 0 .52361032.31952534.7766625.71005722.25304391.39053189.70517701 1.04413234 1.00474389 1.45243444.54465878.74237721.54465878.74237721.54465878 13.87496349 0 7.81753272-.08564716 13.43122005-.21161586 13.87045488-.11638997.40582484-.41134088.87775125-.65544188 1.04873178-.24410927.17097227-.44382602.4515303-.44382602.62345219 0 .28702367-.95790715 1.03086247-2.37911158 1.8474419-.49532001.2845877-3.37364916.33163088-21.872238.35742742-11.71603083.01634992-21.92644127-.04335206-22.68981987-.13267382zm43.59004685-2.75834716c.33736161-.25191263.95899714-.94012867 1.38142788-1.5293699.7680499-1.07133265.7680499-1.07133265.7680499-13.24378224 0-13.90227942.11886722-13.0522735-1.77692255-12.70592768-.7677774.14027076-1.11946583.32854257-1.30360062.69787736-.1386853.2781881-.46088608.65199023-.71600264.83067504-.25511656.17869307-.46385054.44870622-.46385054.60002556 0 .1513276-.31952534.57519515-.71005723.94192881-.92983152.87317658-3.23601255 3.471278-3.68273696 4.14891614-.19299512.2927544-.55044732.67204778-.79434189.84287968-.24388631.17082364-.50404822.5521236-.57814309.84733049-.0740701.29519864-.32608182.59747398-.55998477.67170922-.2339112.07423525-.4928345.34781566-.57539333.60794454-.08257536.26012063-.70206393 1.0464527-1.3766798 1.7473936-.67461588.7009409-1.5373797 1.63829505-1.91725937 2.08301288-.37988792.44471783-1.15352816 1.34931433-1.71921063 2.01021444-.56569073.66090837-1.20840775 1.3491244-1.42827289 1.5293699-.2198734.18024548-.5006874.59808503-.62405499.92854334-.12335932.33045006-.37287727.60081829-.55448525.60081829-.18160798 0-.46495705.31952533-.6296536.71006547-.23351484.55370079-.51080288.7739788-1.25919984 1.00031786-.5278547.15964293-1.12164582.43607219-1.3195294.61428632-.19789184.17820587-.89844464.37960716-1.55680143.44755842-1.08797984.11228597-1.36861219.04004905-3.0812746-.79268212-1.0834382-.5268225-1.8842705-1.05131639-1.8842705-1.23408868 0-.17482854-.23495166-.42491626-.52210746-.55574865-.28716406-.13084065-.63265934-.4805225-.7677774-.77707538-.13511805-.29655287-.48862314-.80187276-.78557238-1.122934-.29694923-.32106123-1.28433578-1.45386298-2.19419233-2.51735098-.9098648-1.06347974-2.18941948-2.46446147-2.84345758-3.11329732-.65402984-.6488276-1.18915943-1.32492157-1.18915943-1.50242556 0-.17750398-.24578554-.48378423-.54619468-.68062736-.3004174-.19683487-.54620295-.50375921-.54620295-.68205592 0-.1782967-.2733492-.58483995-.60744082-.90341567-.33409163-.31858398-1.36587895-1.46408582-2.29286163-2.54556698-.92697937-1.08148117-1.92074074-2.21211945-2.20834327-2.51252859-.28760583-.30040914-.58811737-.76238522-.66780093-1.02660158-.07968522-.26422462-.33648466-.54122365-.57066507-.61554973-.23418288-.07431782-.42578578-.27372079-.42578578-.44309935 0-.16937857-.23334391-.46085306-.51854267-.64772109-.6667192-.4368484-2.24408437-.22358103-2.54812435.3445209-.12760534.23842808-.2105432 5.03493318-.2105432 12.17625632 0 11.45202917.01227895 11.7984493.43696152 12.33836.24032897.30552881.43696153.66616842.43696153.80142685 0 .4450151 1.56649082 1.82297482 2.26496024 1.99236165.37648994.09130357 9.99282934.15027889 21.36964061.13104709 20.63468115-.0348468 20.68660453-.03608543 21.29849617-.49299139zm-21.4641671-8.58022347c.06449135-.10437525.51557574-.25347331 1.00237398-.33130884.65188288-.10424313.94972393-.28339862 1.13040706-.67994199.13491987-.29613174.42679898-.5960124.6486129-.66641614.22181392-.07043678.46204214-.3620599.53384141-.64814222.07184056-.28607406.3669814-.67505353.65595385-.86439882.2889642-.18933703.52540221-.46382577.52540221-.60995937 0-.14614187.23843634-.51255349.52986954-.81426732 1.57917109-1.63487643 2.67311287-2.83840397 3.37811648-3.7165268.43413993-.54073646 1.0597143-1.24381606 1.39016436-1.56240004.33045006-.31858398.60082654-.72064338.60082654-.8934736 0-.17283022.24578555-.42622095.54619469-.56310612.32315865-.14723186.54620294-.43112593.54620294-.69519365 0-.26075646.22095514-.54700393.53143847-.68846377.29228373-.13317753.64696965-.521067.7881735-.8619711.14121212-.34091235.44281035-.67889328.67021462-.75106414.22740427-.07217086.41346306-.22557936.41346306-.34089584 0-.25200347.93303545-1.32342696 2.81107978-3.22799449.76502763-.77582849 1.47455637-1.70210102 1.57673511-2.05838065.20069115-.69976007-.06845496-1.46372248-.51746672-1.46904033-.24873348-.00330302-35.91430592-.00165151-36.25241071.0016515-.08589488.00065235-.25468717.18544773-.37509855.41042429-.35585023.66492979.06135349 1.5759011 1.32300582 2.8888575.64602499.67228726 1.51869786 1.63631324 1.93927065 2.14228547.4205728.50597223 1.08420616 1.22754046 1.4747463 1.60348953.39053188.37594082.71005722.8062988.71005722.95633822 0 .15003942.20561263.33805524.45690595.41781478.25130158.0797678.59851443.48392461.77158412.89814736.17307794.41422276.45531225.80709978.6271846.87305272.17187234.0659777.37357916.3123743.44823554.54759846.07464812.23522416.44708774.7502384.82761975 1.1444779.38054027.39423953 1.06950774 1.15129038 1.53104617 1.68232423.46153843.53104211 1.1743289 1.3329479 1.58398523 1.7820092.40964808.44906955.74482145.91607447.74482145 1.03779054 0 .12170782.1524919.2212937.33886448.2212937.18638084 0 .4811666.34055727.6550868.75680312.17391196.4162376.51300766.86211974.75353315.99084646.2405255.12872672.43731908.34940936.43731908.49040677 0 .4776654 2.16973352 2.3500368 2.7232609 2.3500368.29049184 0 .58892743.09831422.66318744.21847788.16609207.26873323.69684517.28652822.85619083.02873622z"/>
</svg>
