<?xml version="1.0" encoding="UTF-8" standalone="no"?>
<svg
   xmlns:dc="http://purl.org/dc/elements/1.1/"
   xmlns:cc="http://creativecommons.org/ns#"
   xmlns:rdf="http://www.w3.org/1999/02/22-rdf-syntax-ns#"
   xmlns:svg="http://www.w3.org/2000/svg"
   xmlns="http://www.w3.org/2000/svg"
   xmlns:sodipodi="http://sodipodi.sourceforge.net/DTD/sodipodi-0.dtd"
   xmlns:inkscape="http://www.inkscape.org/namespaces/inkscape"
   sodipodi:docname="sm-logo.svg"
   inkscape:version="1.0 (4035a4fb49, 2020-05-01)"
   id="svg8"
   version="1.1"
   viewBox="0 0 145 145"
   height="145mm"
   width="145mm">
  <defs
     id="defs2" />
  <sodipodi:namedview
     inkscape:window-maximized="1"
     inkscape:window-y="-9"
     inkscape:window-x="-9"
     inkscape:window-height="1001"
     inkscape:window-width="1920"
     fit-margin-bottom="0"
     fit-margin-right="0"
     fit-margin-left="0"
     fit-margin-top="0"
     showgrid="false"
     inkscape:document-rotation="0"
     inkscape:current-layer="layer1"
     inkscape:document-units="mm"
     inkscape:cy="353.9347"
     inkscape:cx="333.42867"
     inkscape:zoom="0.98994949"
     inkscape:pageshadow="2"
     inkscape:pageopacity="0.0"
     borderopacity="1.0"
     bordercolor="#666666"
     pagecolor="#ffffff"
     id="base" />
  <metadata
     id="metadata5">
    <rdf:RDF>
      <cc:Work
         rdf:about="">
        <dc:format>image/svg+xml</dc:format>
        <dc:type
           rdf:resource="http://purl.org/dc/dcmitype/StillImage" />
        <dc:title></dc:title>
      </cc:Work>
    </rdf:RDF>
  </metadata>
  <g
     transform="translate(-14.774168,-93.315804)"
     id="layer1"
     inkscape:groupmode="layer"
     inkscape:label="Layer 1">
    <g
       transform="matrix(0.82575355,0,0,0.82575355,33.538547,28.779464)"
       id="g949">
      <path
         id="rect935"
         style="opacity:1;fill:#ffa22d;fill-opacity:1;stroke:none;stroke-width:0.226;stroke-miterlimit:4;stroke-dasharray:none"
         d="M 60.135644,193.50313 103.412,200.59018 97.553376,214.8847 H 60.135644 Z M 35.012311,164.37075 h 18.976137 v 54.52298 H 35.012311 Z m 6.414463,-42.22859 H 68.688266 V 224.2391 H 41.426774 Z m 8.018089,-13.55269 h 55.859327 v 33.8652 H 49.444863 Z m -0.385895,24.12613 h 62.665982 v 68.01011 H 49.058968 Z"
         sodipodi:nodetypes="ccccccccccccccccccccccccc" />
      <path
         id="rect881"
         style="opacity:1;fill:#ffffff;fill-opacity:1;stroke:none;stroke-width:1.16232;stroke-miterlimit:4;stroke-dasharray:none"
         d="m 92.285476,100.61817 c -1.288612,-0.0385 -2.630722,0.009 -4.024233,0.14674 -33.050652,3.22226 -38.142326,4.65383 -45.219569,12.71452 -6.166694,7.0235 -10.558992,22.30121 -10.615303,36.91975 -0.02887,7.74579 -0.661957,12.79303 -1.865401,14.89826 -2.175999,3.80653 -2.678285,42.39332 -0.646662,49.70644 1.588476,5.71785 9.929979,13.92901 15.482733,15.24152 6.054394,1.43097 6.590765,1.42599 13.853639,-0.13192 3.723906,-0.79857 8.265183,-2.90522 10.568059,-4.90223 2.618646,-2.27067 6.143298,-3.77956 10.025852,-4.29532 8.464531,-1.12455 19.619603,-5.27269 24.794789,-9.22008 5.93203,-4.52454 11.57662,-12.54096 13.30394,-18.89757 1.98593,-7.30815 0.62674,-22.03222 -2.75827,-29.90094 -2.65707,-6.17654 -2.77349,-7.68493 -1.92012,-24.91417 0.82235,-16.60246 0.67441,-18.86106 -1.56691,-23.84717 -3.93901,-8.76278 -10.39199,-13.2587 -19.412544,-13.51783 z m -1.201268,8.75239 c 1.387306,0.10454 2.685558,0.69375 4.822627,1.83802 8.304935,4.44679 9.422775,8.71729 7.968945,30.42329 -1.22746,18.32606 -1.19819,18.75289 1.74851,24.29482 6.86263,12.90678 5.37663,25.38981 -4.15856,34.90773 -6.270364,6.25896 -13.459811,9.33038 -26.764635,11.43362 -4.643413,0.73397 -7.837628,2.15348 -10.426302,4.63352 -2.879563,2.7589 -5.266004,3.69716 -10.44618,4.11141 -6.35533,0.50824 -6.950827,0.29024 -11.169962,-4.09894 -4.457026,-4.63685 -4.45746,-4.63632 -4.889807,-24.28982 -0.39659,-18.03488 -0.216865,-20.00302 2.183744,-23.88697 2.284402,-3.69624 2.523809,-5.59534 1.897734,-14.98032 -0.621413,-9.31489 -0.27271,-12.12986 2.611543,-21.13615 2.519909,-7.86805 4.372153,-11.30818 7.628196,-14.16697 4.721651,-4.14568 13.388974,-6.62441 22.404593,-6.40701 3.151743,0.076 8.203199,-0.64683 11.224692,-1.60672 2.501091,-0.79463 3.977529,-1.1741 5.364862,-1.06951 z m -1.944995,11.99324 c -3.501313,0 -3.874699,0.42545 -4.462015,5.09374 -0.443289,3.52177 -0.91492,4.42468 -1.527112,2.9299 -2.539746,-6.20101 -18.842578,-8.10355 -23.884481,-2.78811 -6.318084,6.66074 -8.657379,27.86914 -3.760632,34.09433 3.410015,4.33513 8.885425,7.15068 13.905856,7.15068 7.145875,0 15.246328,2.75057 17.850554,6.06129 3.459165,4.3976 3.349908,12.16279 -0.219129,15.48771 -1.503634,1.40077 -5.774498,3.22539 -9.488624,4.05654 -5.83856,1.30667 -7.189977,1.22607 -9.983583,-0.60436 -4.015917,-2.63131 -8.356946,-10.91937 -8.356946,-15.95274 0,-4.15499 -3.117519,-6.02702 -7.640639,-4.59142 -2.384018,0.75667 -2.546876,1.92651 -2.546876,18.29577 0,11.9036 0.48695,17.97434 1.527131,19.01453 2.108056,2.10802 3.163875,1.92985 6.125949,-1.03217 2.085906,-2.08601 2.404112,-3.53317 1.718647,-7.81967 -0.841174,-5.26058 -0.841146,-5.26108 3.278114,-2.21614 5.120986,3.7854 12.9985,3.7342 23.384547,-0.15149 9.414805,-3.52258 13.62975,-8.48516 13.62975,-16.05232 0,-12.30564 -7.659935,-19.87685 -21.782777,-21.53159 -10.943175,-1.28218 -13.686634,-2.7691 -14.656983,-7.94158 -1.063438,-5.66845 2.005297,-19.33559 4.725645,-21.04902 4.268277,-2.68841 8.262128,-0.0386 11.791755,7.82964 1.852005,4.12686 3.367657,8.75764 3.367657,10.29197 0,6.38132 5.321874,10.13422 8.662865,6.10856 0.733943,-0.88434 1.521245,-9.05026 1.748503,-18.14655 0.413438,-16.53857 0.412967,-16.53728 -3.407455,-16.53728 z"
         sodipodi:nodetypes="scscsssssssssssssssssssssssssssssssssssssssssssssssssssscsssss" />
      <rect
         style="fill:#ffffff;fill-opacity:1;stroke:none;stroke-width:0.197567;stroke-miterlimit:4;stroke-dasharray:none"
         id="rect901"
         width="59.206711"
         height="36.290939"
         x="90.960747"
         y="183.25999" />
      <path
         style="fill:#000000;stroke-width:0.264583"
         d="m 94.439276,222.89134 c -1.60856,-0.18819 -2.142352,-0.5035 -2.15157,-1.27092 -0.0021,-0.1855 -0.304758,-0.45161 -0.67229,-0.59134 -0.367531,-0.13974 -0.744493,-0.46421 -0.83769,-0.72106 -0.0932,-0.25684 -0.526428,-0.97214 -0.962731,-1.58954 -0.793279,-1.12255 -0.793279,-1.12255 -1.037757,-8.46667 -0.260739,-7.8325 -0.07792,-22.04388 0.304512,-23.67056 0.126799,-0.53933 0.422846,-1.17292 0.657889,-1.40796 0.235042,-0.23504 0.427349,-0.57763 0.427349,-0.7613 0,-0.33842 1.200759,-1.63201 3.109688,-3.3501 1.048547,-0.94372 1.048547,-0.94372 27.478284,-0.92604 28.47771,0.019 26.99001,-0.0534 28.33533,1.38084 0.32047,0.34167 0.7552,0.62122 0.96605,0.62122 0.21086,0 0.6341,0.38695 0.94055,0.85989 0.30644,0.47294 0.85398,1.26446 1.21676,1.75892 0.65959,0.89903 0.65959,0.89903 0.65959,16.80279 0,9.46715 -0.10372,16.26541 -0.25627,16.79733 -0.14095,0.49146 -0.49814,1.06297 -0.79375,1.27003 -0.29562,0.20705 -0.53748,0.54681 -0.53748,0.75501 0,0.34759 -1.16004,1.24839 -2.88114,2.23728 -0.59984,0.34464 -4.08554,0.40161 -26.48761,0.43285 -14.18829,0.0198 -26.553251,-0.0525 -27.477714,-0.16067 z m 52.788204,-3.3404 c 0.40855,-0.30507 1.16136,-1.13851 1.67293,-1.85209 0.93012,-1.2974 0.93012,-1.2974 0.93012,-16.03842 0,-16.83587 0.14395,-15.8065 -2.15188,-15.38707 -0.92979,0.16987 -1.35569,0.39787 -1.57868,0.84514 -0.16795,0.33689 -0.55814,0.78957 -0.86709,1.00596 -0.30895,0.2164 -0.56173,0.54339 -0.56173,0.72664 0,0.18326 -0.38695,0.69657 -0.85989,1.14069 -1.12604,1.05743 -3.91886,4.20377 -4.45985,5.0244 -0.23372,0.35453 -0.6666,0.81386 -0.96196,1.02074 -0.29535,0.20687 -0.61041,0.66863 -0.70014,1.02613 -0.0897,0.35749 -0.39489,0.72355 -0.67815,0.81345 -0.28327,0.0899 -0.59683,0.42121 -0.69681,0.73623 -0.1,0.31501 -0.85021,1.26727 -1.66718,2.11612 -0.81697,0.84885 -1.86179,1.984 -2.32183,2.52256 -0.46005,0.53856 -1.39694,1.63404 -2.08199,2.4344 -0.68506,0.80037 -1.4634,1.63381 -1.72966,1.85209 -0.26627,0.21828 -0.60634,0.72429 -0.75574,1.12448 -0.14939,0.40018 -0.45156,0.7276 -0.67149,0.7276 -0.21993,0 -0.56307,0.38695 -0.76252,0.8599 -0.28279,0.67054 -0.61859,0.9373 -1.52491,1.2114 -0.63924,0.19333 -1.35833,0.52809 -1.59797,0.74391 -0.23965,0.21581 -1.08803,0.45971 -1.88531,0.542 -1.31756,0.13598 -1.65741,0.0485 -3.73147,-0.95995 -1.31206,-0.63799 -2.28188,-1.27316 -2.28188,-1.4945 0,-0.21172 -0.28453,-0.51458 -0.63228,-0.67302 -0.34776,-0.15845 -0.76616,-0.58192 -0.92979,-0.94105 -0.16363,-0.35913 -0.59173,-0.97108 -0.95134,-1.35989 -0.35961,-0.38881 -1.55535,-1.76065 -2.6572,-3.04855 -1.10186,-1.28789 -2.65142,-2.9845 -3.44347,-3.77025 -0.79204,-0.78574 -1.44009,-1.6045 -1.44009,-1.81946 0,-0.21496 -0.29765,-0.58587 -0.66145,-0.82425 -0.36381,-0.23837 -0.66146,-0.61006 -0.66146,-0.82598 0,-0.21592 -0.33103,-0.70825 -0.73562,-1.09405 -0.40459,-0.38581 -1.6541,-1.77303 -2.77669,-3.08272 -1.122586,-1.30969 -2.326046,-2.67891 -2.674337,-3.04271 -0.348295,-0.3638 -0.712219,-0.92326 -0.808717,-1.24323 -0.0965,-0.31998 -0.407488,-0.65543 -0.691084,-0.74544 -0.283599,-0.09 -0.515633,-0.33148 -0.515633,-0.5366 0,-0.20512 -0.282583,-0.5581 -0.627963,-0.7844 -0.807407,-0.52903 -2.71762,-0.27076 -3.085817,0.41722 -0.154532,0.28874 -0.254971,6.09738 -0.254971,14.74563 0,13.86858 0.01487,14.2881 0.529167,14.94194 0.291042,0.37 0.529167,0.80674 0.529167,0.97054 0,0.53892 1.897044,2.20765 2.742901,2.41278 0.455935,0.11057 12.101467,0.18199 25.878957,0.1587 24.98891,-0.0422 25.05179,-0.0437 25.7928,-0.59702 z m -25.99343,-10.39078 c 0.0781,-0.1264 0.62437,-0.30696 1.21389,-0.40122 0.78944,-0.12624 1.15013,-0.3432 1.36894,-0.82342 0.16339,-0.35862 0.51686,-0.72178 0.78548,-0.80704 0.26862,-0.0853 0.55954,-0.43846 0.64649,-0.78491 0.087,-0.34644 0.44442,-0.8175 0.79437,-1.0468 0.34994,-0.22929 0.63627,-0.5617 0.63627,-0.73867 0,-0.17698 0.28875,-0.62071 0.64168,-0.98609 1.9124,-1.97986 3.23718,-3.43735 4.09095,-4.50077 0.52575,-0.65484 1.28333,-1.50628 1.68351,-1.89209 0.40018,-0.38581 0.72761,-0.87271 0.72761,-1.08201 0,-0.2093 0.29765,-0.51616 0.66145,-0.68193 0.39135,-0.1783 0.66146,-0.5221 0.66146,-0.84189 0,-0.31578 0.26758,-0.66243 0.64358,-0.83374 0.35396,-0.16128 0.78349,-0.63102 0.95449,-1.04386 0.17101,-0.41285 0.53625,-0.82215 0.81164,-0.90955 0.27539,-0.0874 0.50071,-0.27318 0.50071,-0.41283 0,-0.30518 1.12992,-1.60269 3.40426,-3.90915 0.92646,-0.93954 1.78571,-2.06127 1.90945,-2.49273 0.24304,-0.84742 -0.0829,-1.77259 -0.62666,-1.77903 -0.30122,-0.004 -43.492766,-0.002 -43.902216,0.002 -0.10402,7.9e-4 -0.30843,0.22458 -0.45425,0.49703 -0.43094,0.80524 0.0743,1.90844 1.60218,3.49845 0.782346,0.81415 1.839166,1.9816 2.348486,2.59434 0.50932,0.61274 1.31299,1.48657 1.78594,1.94185 0.47294,0.45527 0.85989,0.97644 0.85989,1.15814 0,0.1817 0.249,0.40939 0.55332,0.50598 0.30433,0.0966 0.72481,0.58604 0.9344,1.08767 0.2096,0.50163 0.55139,0.97741 0.75953,1.05728 0.20814,0.0799 0.45241,0.37829 0.54282,0.66315 0.0904,0.28486 0.54143,0.90855 1.00226,1.38598 0.46084,0.47743 1.29519,1.39423 1.85412,2.03732 0.55893,0.6431 1.42213,1.61422 1.91823,2.15804 0.49609,0.54383 0.90199,1.10938 0.90199,1.25678 0,0.14739 0.18467,0.26799 0.41037,0.26799 0.22571,0 0.5827,0.41242 0.79332,0.9165 0.21061,0.50407 0.62126,1.04404 0.91254,1.19993 0.29128,0.15589 0.5296,0.42314 0.5296,0.59389 0,0.57846 2.62758,2.84593 3.29791,2.84593 0.35179,0 0.7132,0.11906 0.80313,0.26458 0.20114,0.32544 0.84389,0.34699 1.03686,0.0348 z"
         id="path853" />
    </g>
  </g>
</svg>
